# xmcd
#
# Track frame offsets:
#	150
#	15850
#	29678
#	41460
#	54496
#	79392
#	100187
#	116334
#	135692
#	150235
#	166291
#	187944
#	201627
#	214990
#	238423
#	247387
#	266462
#
# Disc length: 3822 seconds
#
# Revision: 0
# Processed by: cddbd v1.5.2PL0 Copyright (c) Steve Scherf et al.
# Submitted via: audiograbber 1.83.01
#
DISCID=ed0eec11
DTITLE=Egil Skjelnes - Steel On My Mind
DYEAR=2010
DGENRE=Steel Guitar
TTITLE0=I Feel Like I`m Forgetting Something - Vokal: Kristin Skauge
TTITLE1=Last Thing On My Mind - Instrumental
TTITLE2=Time Has Come - Vokal: Anne-Sophie Endresen
TTITLE3=Steel On My Mind - Instrumental
TTITLE4=Jenny Dreamed Of Trains - Vokal: Tor Endresen
TTITLE5=Blizz - Vokal: Kristin Skauge
TTITLE6=If You Love Me Let Me Know - Instrumental
TTITLE7=Åleina Med Eit Glas - Heimalanne
TTITLE8=Emmelin - Instrumental
TTITLE9=Down And Out - Vokal: Kristin Skauge
TTITLE10=Medley(Tom Brumley Tribute): Tracy`s Waltz/Tom`s Waltz/Waltz Of Roses/
TTITLE10=Neosho Waltz - Instrumental
TTITLE11=True Blue Fool - Vokal: Anne-Sophie Endresen
TTITLE12=Sondre`s Waltz - Instrumental
TTITLE13=Worlds Apart - Tor Endresen
TTITLE14=Eirin`s Rocking Rock-a-bye - Instrumental
TTITLE15=Back Roads - Vokal: Kristin Skauge
TTITLE16=Jenny Dreamed Of Trains - Radio Mix - Vokal: Tor Endresen
EXTD=
EXTT0=
EXTT1=
EXTT2=
EXTT3=
EXTT4=
EXTT5=
EXTT6=
EXTT7=
EXTT8=
EXTT9=
EXTT10=
EXTT11=
EXTT12=
EXTT13=
EXTT14=
EXTT15=
EXTT16=
PLAYORDER=
